/* XPM */
static char *_ff691d56c5244fdef54c6c8477b7961k4VNMwnh8kVpBDYs[] = {
/* columns rows colors chars-per-pixel */
"64 64 118 2 ",
"   c #868686",
".  c gray53",
"X  c #888888",
"o  c #898989",
"O  c gray54",
"+  c #8B8B8B",
"@  c gray55",
"#  c #8D8D8D",
"$  c #8E8E8E",
"%  c gray56",
"&  c #909090",
"*  c gray57",
"=  c #929292",
"-  c #939393",
";  c gray58",
":  c #959595",
">  c gray59",
",  c #979797",
"<  c #989898",
"1  c gray60",
"2  c #9A9A9A",
"3  c #9B9B9B",
"4  c gray61",
"5  c #9D9D9D",
"6  c gray62",
"7  c #9F9F9F",
"8  c #A0A0A0",
"9  c gray63",
"0  c #A2A2A2",
"q  c gray64",
"w  c #A4A4A4",
"e  c #A5A5A5",
"r  c gray65",
"t  c #A7A7A7",
"y  c gray66",
"u  c #A9A9A9",
"i  c #AAAAAA",
"p  c gray67",
"a  c #ACACAC",
"s  c gray68",
"d  c #AEAEAE",
"f  c #AFAFAF",
"g  c gray69",
"h  c #B1B1B1",
"j  c #B2B2B2",
"k  c gray70",
"l  c #B4B4B4",
"z  c gray71",
"x  c #B6B6B6",
"c  c #B7B7B7",
"v  c gray72",
"b  c #B9B9B9",
"n  c gray73",
"m  c #BBBBBB",
"M  c #BCBCBC",
"N  c gray74",
"B  c gray",
"V  c gray75",
"C  c #C0C0C0",
"Z  c #C1C1C1",
"A  c gray76",
"S  c #C3C3C3",
"D  c gray77",
"F  c #C5C5C5",
"G  c #C6C6C6",
"H  c gray78",
"J  c #C8C8C8",
"K  c gray79",
"L  c #CACACA",
"P  c #CBCBCB",
"I  c gray80",
"U  c #CDCDCD",
"Y  c #CECECE",
"T  c gray81",
"R  c #D0D0D0",
"E  c gray82",
"W  c #D2D2D2",
"Q  c LightGray",
"!  c gray83",
"~  c #D5D5D5",
"^  c gray84",
"/  c #D7D7D7",
"(  c #D8D8D8",
")  c gray85",
"_  c #DADADA",
"`  c gray86",
"'  c gainsboro",
"]  c #DDDDDD",
"[  c gray87",
"{  c #DFDFDF",
"}  c gray88",
"|  c #E1E1E1",
" . c #E2E2E2",
".. c gray89",
"X. c #E4E4E4",
"o. c gray90",
"O. c #E6E6E6",
"+. c #E7E7E7",
"@. c gray91",
"#. c #E9E9E9",
"$. c #EAEAEA",
"%. c gray92",
"&. c #ECECEC",
"*. c gray93",
"=. c #EEEEEE",
"-. c #EFEFEF",
";. c gray94",
":. c #F1F1F1",
">. c gray95",
",. c #F3F3F3",
"<. c #F4F4F4",
"1. c gray96",
"2. c #F6F6F6",
"3. c #F8F8F8",
"4. c #F9F9F9",
"5. c #FBFBFB",
"6. c gray99",
"7. c white",
/* pixels */
": r r r d g n R ) ) ) ! R D d 3 & & & : $ + + $ $ $ $ : q g n n x u r : & : : + + $ q Y Y n g g D R R D R n : & 7 g n A D d & + ",
"q u q u r d K ] $.>.3.$...! x 3 & : 3 3 & $ $ $ $ $ : : 7 q g x q 3 q 7 & & : $ + + : g x D Y R ! ] ] Y A g 7 q r A D A d q $ + ",
"M A x x n n Y +.3.3.>.>.&.! g 3 7 q r q & $ $ + $ & : : : & 3 u 3 & & $ $ $ : & + + $ : q M Y Y Y R ! M M D D K K ) R g : $     ",
"Y ! R Y R ! ) $.6.3.>.>.&.! g u A A g :       + + $ $ $ $ $ r K n 7 $       + + +     + : q u g A ! ) n u n n M D Y n 3 &       ",
"A K ] +.] K K K ] $.+.&.3...D D ! R x :       + + $ $ $ $ $ 7 K Y r $                   + : x A D R A 7 : r r 7 r M g 7 +       ",
"r n ..&.R g d u M ..K ! 2.2.$.) K M r q 7 : & $ + $ : : $ + + 7 d r &                 + $ 7 Y ..] ! n 3 & $ & $ : r 3 $         ",
"3 u M ! D 7 : q D ..D ..>.$.$.! n u 3 3 3 3 : : + + & : $ + + + & & & $               $ 7 d ! ..Y A M q & + $ $ : 7 & +         ",
"q r d D n 3 : r n D A R $.! Y A d r q 3 3 : & 3 7 & : 7 3 & +       & 3 & $ $ & $     & q d A Y d u x r q & $ & 7 q & +         ",
"7 q g K M q : u n Y K n R A g g 7 7 q 3 : $ + $ q r u g d q : & 3 q u d q $ : q &     $ 3 r n u : : q 7 r 3 & 3 r q &           ",
"3 3 d K R M n K ] ] M r n A M n r 7 q 7 + + + $ q D D A n A A n n M M x 3 $ r d :       & u n 3 + $ & 7 q r 7 q q : $           ",
"7 : 7 n D ) ..&.&.) D x x M K Y x 7 7 +     : q n M D M A Y ] R Y K M r & q n x 3       & r g u & & : r r r q q & $ +           ",
"x q r n K ..2.6.6.+.) A x d M K n 7 7       + q d d u r x A R K K A u 3 r n D g &       $ : 3 q : : 3 7 7 q 7 : +               ",
"D u 7 r x R >.3.>.] ! D n d d M d 7 +         + q u u 7 r g n g d r : 3 r x g 7 $             + $ $ : 7 q 3 + +         + + +   ",
"] g : & : g ) >.&.] K g d d q r q 7             + r d r u r q 7 : & & : 3 7 q : + + $ + + +   + $ $ & 3 7 3           + & $ +   ",
"! g : & : d ] 3.>.+.D d q q + + 7 7               + $ 3 & $ : & & : 3 r 7 3 3 & + + & : 7 q : 3 : $ $ & + +       + + $ & $ + + ",
"g 7 & & 7 M $.6.6.>.) A u +     + +                   $ $ $ & & : q d n x d d u : $ 3 g K K M M d 7 : &   +       + + $ $ + + & ",
"r q & $ $ 7 D &.6.>.3.$.! 3   3               +     +   $ & $ & : 7 n Y R ! ) Y M x K ..&.$.+.] K x r : $ + + + $ & : : : q u u ",
"q r :     $ d +.6.6.6.6.+.M r u 3           $ +     + + + $ + + & 3 g ! +.+...] ] ..2.6.3.2.6.2.Y x d 3 : & + $ & 7 r g n D ) R ",
": 7 3 $ + $ d ] 3.6.6.6.>...A x 7     + + + + $ +         + & : 3 r g K +.+.! ] ] $.+.! K n Y ) M M x 3 : $ $ $ & 3 q u n R ] Y ",
"$ : 7 & $ 3 A &.6.6.6.6.>.+.Y d +     : & + $ : : $ + + + + 3 r 7 7 r u D R g x A n u u d r u u q 7 3 & $ + + + $ + & r x n d d ",
"$ & : $ & r D $.6.6.6.6.>.+.R x r r q q 7 3 $ $ : : & & $ + $ & $ $ 3 7 r r & : u q r n n x u r 7 3 $ + + + + $ & & & 7 g d 3 7 ",
"$ : : & 7 r n ] >.2.6.6.>.+.) ] ] K D x q 7 3 & : 3 & & : $ $ $ : q r 7 7 7 7 3 3 q d ! ) M q 7 7 $         + $ & 7 r 7 x u 3 + ",
"3 7 r u x D R ..] ] >.6.>.>.] ..+.) R d 7 3 q 3 : & $ & 3 $ $ & q x n r 7 7 &   & 3 q n D q $ & $             + $ 3 7 q u 7 3 : ",
"$ : q r n R ] ..] ] >.6.6.>.+.] +.] x $ 3 : 7 3 7 $ + $ : $ + : r M D n M n r & & 7 : 3 d 7 & + $ : $       + + & 7 7 7 3 7 d d ",
"    & q M R ! ! +.&.&.>.3.6.6.&.] ] x 3 : : 3 u g 7 + + $ + + 3 u n D K R K n q : 3 : & : 7 q 3 : : : : & $ $ $ : 3 7 : 3 r u r ",
"+   $ q g A K ! $.3.6.6.6.6.6.! n x d r u d g M g : $ & $   + & q n K Y M x n x u r 3 & & : : & $ $ & 3 3 7 3 3 3 3 7 & 7 x x g ",
"$ & & u M R ..$.>.3.6.6.6.6.&.D & $ q x K ) A x r : 3 7 : & : 7 g K Y Y K M r 7 7 3 7 7 q 3 & $ $ + $ & : r x g r r 7 3 r D D R ",
"$ & 7 A ..>.3.6.3.3.6.6.6.&.+.D 3 3 M ! &.+.R u 3 $ $ & 3 q d M Y R Y Y K n u u q & r M x 3 $ $ + + + + + r K K M n g u g D ] >.",
"+ : x ] >.>.3.6.>.2.3.>.>...] g 7 u ..&.6.] K g 7 +   + : r r d M Y ) K R Y D D d $ 7 M A q $ + + + +   + : d n x M K K D ! $.6.",
"$ 3 x Y K R ..>.>.2.3.&.&...A q 7 K >.>.&.Y M x q $     + $ & & 7 x K D ) ! Y n q : 7 x A g : +       + $ : 7 7 3 r r u x ..>.+.",
"d u q u n K R ..$.$.>.+.+.>.A u 7 x ) ..$.D d x q + + + + $ & 3 u D R K ! Y n u 3 & & q g M r & +     + $ : : : : : 3 7 q g Y ] ",
"n r 3 7 g K R ] ........! ) D d 7 q Y ..) g : : & + + $ $ 3 g x g D ! Y x n 7 + $ + $ : q g r & +       + $ & 7 u q 3 &   3 A K ",
"g q q d d q q u M ) ] ] K M d 7 7 7 n R ] u & $ + + + + & r Y K M Y $...M q +       + & : r 7 $             $ 3 7 7 7 3 3 q M x ",
"x u 7 u r $ + $ q A D D x u u u 7 r Y ! g 3 & & $ + + : r u g x K ) ! ! x 3           + + & 3 $             + + $ $ 3 u g g d u ",
"u q 7 q 3 + + & 3 M K x r 7 d n g M g u 3 & & & & : 3 q q u r d D ] ] R d +               + $ $                 + + & u K Y d x ",
"q u d u : + + & r g M u q 3 u D K u 7 & & & $ & : r u q & : 7 g D ) R ! A               + +             + + + + + & q D $.$.D D ",
"q d M K x :   + : u g n u : $ q d 3 : $ & : & & : r q : & & & 7 x Y K D n 3           + $ & +           + $ & 3 : : g ) 3.$.K n ",
"r d A ] Y x 3 & : q u g u 7 $ : : +     + $ & : : q q & $ $ $ $ : u g r 7 +           + $ & +     +     + $ : 7 : : d R ..] Y g ",
"K D Y ) Y A 7 & 7 7 r d r r : : & +     + $ + $ & 7 r : $ $ & $ & 7 q : +         $ &   & $     + +     + $ & q q 3 q A ! K K M ",
"] ) R D x 7 $ $ : 7 x Y g r 3 $ $ $ + + & $ $ $ & : 3 q 7 : $   + 3 q : : $     $ & :   & & $ $ + +   + + + $ 7 d u q q d n D ) ",
"..] R x q & + $ $ r x n q 3 & +     $ 3 : & $ & : 3 q g M n q $   $ : r q & + $ & : r r u g M g 3 $ + + + + $ : d g 7 3 q d D K ",
"] ] R g 3 $ $ $ $ : 3 3 : & $ + +   + 3 r u r 7 r r 7 r n R A :     + & & & $ & 3 3 d n A Y Y n r $ + $ & & & : 7 7 7 7 q 7 x A ",
"K Y M q & & & : & $ & 3 3 & $ $ $ + $ 3 g ) ..) ..) K M D ] ] M q & $ $ & $ + & r 7 r d n D M q $ + + $ 3 3 7 + : $ 3 q q q x K ",
"x q 3 $ $ $ : 7 7 : : q q : $ $ + + + & q K ..$.6.2...] ] ..] M 7 & : 3 7 : $ $ & : q q u x u $     + & 7 r 3 7 q 7 u x M D A Y ",
"g & $ + + + & 3 3 & 3 u r & + + + + $ 3 g Y ) +.&.&.] ! ! ! R g 3 3 7 q 7 3 : & : d K K x r : +     + : r x g x M x A Y ] ..! ..",
"A 3 $ $ +   + $ $ & 7 r q $ + + + + & x +.$.+.&.>.&.....] R A r 3 7 q 7 3 : : : 3 d Y ! x & +         & 3 u M n g u M ..>.+.&.>.",
") n 7 & +   + + + & 3 q q $         $ x +.&.3.3.+.] ! ! ! K n r 7 7 & $ & & : 3 7 r d x r $ + +       & 3 q g u 3 u K ..>.3.>.$.",
"2.! d $       + + $ & : q : +       + g &.2.2.3.2.] K M n n g r 7 7 7 3 & & 7 q 7 7 q q 7 $ $ &       3 q g M g 3 n &.+.>.2.>.] ",
">.Y r +     + $ $ & & 3 r 7 + + + + $ g R ..] ..&.$.! n d r 7 7 7 r r 7 3 q u r 7 7 3 3 : $ & :       & 7 g d u u M ] $.2.$.6.2.",
"..x &     + $ + $ : 7 u g u & $ & 3 q u u x n M R ] ! A r 7 &   $ & : & 3 7 7 3 3 3 3 3 3 : 3 q &     : q x x M g r r D 2.6.6.3.",
") r +     $ & $ & u A K K n q $ & u D x r r 7 7 M ] $.) n r &   + $ $ & : r d q q 7 3 3 3 7 3 d 7     : r M R Y g & & n ..2.+.] ",
"x q +   + : r u x Y ! R K n d r 7 x ] ] A r & : u Y $.+.n &       + $ $ $ 7 n u 3 3 : & & : 3 d d q   + $ 7 d M d 7 7 d R ..A A ",
"& $ + $ : u A K ! ] ] ] Y d r g u d ! $.R g q r r M +.) g &       + +   + & q 7 $ $ : $ & 3 q n n d       $ $ q r 7 7 g D Y A D ",
"$ $ & 7 u d n Y ! ! ..+.Y d r g q $ g D M D ! ) K ! Y g :       + +         + $ $ & q q q 7 7 g d 3 :   & & & 7 q 3 r M A M A Y ",
"$ $ & r g u n ) ..) ..$.R g r u 7   $ r r D ] &.+.! d & +     + +     + +     + + & u A n q : 3 & $ : : 7 u u r 7 7 d M x u M R ",
"+ + & d n g x R &...! +.D q 3 r q 3 7 r 7 M ! 6...M 7 $       + $ + + +         + & q d u q 3 : $ + 3 u r g x g d d r 7 q r g A ",
"& + : x A A D ) +.) ! R u : & & : : q d n d D R g q q & +     + + $   +         + & q r u q 7 : $ $ & 7 7 u g D R M u 3 & & : r ",
"    & u M D D ! ..! ! D 7 + + + & : 3 u d d g r 3 : 7 : $ $ & &   +     + +       $ 7 u u u x g g u r 3 : q g ! >.K r 3 & + + & ",
"3 : $ $ r d g A Y ..Y n n n : 7 7 3 & u K D n r 3 3 q q : $ : +       + + $ +     $ 7 d g g n K D D D q 3 q u n ! M 3 3 & + + $ ",
"d r 3 7 q 7 q g D R D Y &.+.n x u 7 3 q M D M g d g x x q : +         + + $ $ + + & 7 u d g A ) ! ] ..D x d d A ! A 7 3 7 & $ : ",
"n D K g r r r g M K ) >.6.&.K d $ 3 & : 7 d d d M D M D g 3       $ + + $ : 3 $ + $ & & 3 r K &.2.3.&...! ] Y R ] ! d 3 : : : & ",
"x R ! x 7 7 3 q g g g R 2.6.&.K d r u 7 : 7 r 7 r g u r d +     & & + $ 7 q 3 & $ + + + & 7 M ! $.2.3.>.3.3.&.] ....g 3 $       ",
"x ! +.K q q u n R ] ] +.3.3.2.&.$.K ) n 3 : q : & : 7 q u 3 :   : & + 3 g 3 $ $ $ $ + + & 3 r r g Y &.3.6.6.2.$.2...M u 7 $     ",
"g M K A d n ] 3.3.3.6.6.6.6.6.>.>.) R g & $ : & $ + & q u r &   $ $ $ 3 u 3 & & & $ $ & : 7 7 3 q A &.6.6.6.6.6.3.) D n 7 +     "
};
