/* XPM */
static char *d4a2d93c2f584ced95a51dfa083e8c64am7unkJaXuxmJboY[] = {
/* columns rows colors chars-per-pixel */
"64 64 213 2 ",
"   c black",
".  c black",
"X  c #040404",
"o  c gray19",
"O  c #8B8B8B",
"+  c #A0A0A0",
"@  c #888888",
"#  c #606060",
"$  c gray38",
"%  c gray57",
"&  c #838383",
"*  c #989898",
"=  c #848484",
"-  c gray40",
";  c gray59",
":  c gray47",
">  c gray39",
",  c #747474",
"<  c #6C6C6C",
"1  c gray61",
"2  c #6D6D6D",
"3  c gray45",
"4  c #646464",
"5  c gray49",
"6  c gray37",
"7  c #9B9B9B",
"8  c gray95",
"9  c white",
"0  c gray34",
"q  c gray5",
"w  c black",
"e  c gray71",
"r  c white",
"t  c #060606",
"y  c #C5C5C5",
"u  c #8B8B8B",
"i  c gray88",
"p  c #909090",
"a  c #1B1B1B",
"s  c #DADADA",
"d  c #0B0B0B",
"f  c #505050",
"g  c gray19",
"h  c #EFEFEF",
"j  c gray21",
"k  c #4B4B4B",
"l  c #111111",
"z  c gray46",
"x  c white",
"c  c gray99",
"v  c gray92",
"b  c #393939",
"n  c #8D8D8D",
"m  c #565656",
"M  c #8D8D8D",
"N  c gray30",
"B  c #9D9D9D",
"V  c gray66",
"C  c gray53",
"Z  c gray65",
"A  c gray31",
"S  c #5F5F5F",
"D  c #AEAEAE",
"F  c #6A6A6A",
"G  c #515151",
"H  c #7B7B7B",
"J  c #9B9B9B",
"K  c #8E8E8E",
"L  c black",
"P  c black",
"I  c gray90",
"U  c gray98",
"Y  c gray23",
"T  c #202020",
"R  c gray44",
"E  c #252525",
"W  c gray96",
"Q  c gray69",
"!  c gray81",
"~  c #101010",
"^  c #CACACA",
"/  c gray54",
"(  c #DFDFDF",
")  c white",
"_  c black",
"`  c black",
"'  c gray99",
"]  c #565656",
"[  c black",
"{  c gray46",
"}  c gray98",
"|  c white",
" . c #202020",
".. c gray44",
"X. c gray90",
"o. c #252525",
"O. c #A0A0A0",
"+. c gray96",
"@. c gray69",
"#. c gray81",
"$. c #101010",
"%. c #CACACA",
"&. c gray71",
"*. c #EFEFEF",
"=. c gray54",
"-. c gray38",
";. c black",
":. c gray24",
">. c #E4E4E4",
",. c white",
"<. c #C6C6C6",
"1. c #A5A5A5",
"2. c #AFAFAF",
"3. c black",
"4. c #4B4B4B",
"5. c gray37",
"6. c #3A3A3A",
"7. c gray88",
"8. c white",
"9. c white",
"0. c black",
"q. c black",
"w. c gray58",
"e. c gray56",
"r. c gray91",
"t. c white",
"y. c gray12",
"u. c gray51",
"i. c gray27",
"p. c gray34",
"a. c white",
"s. c #252525",
"d. c #4E4E4E",
"f. c gainsboro",
"g. c gray60",
"h. c #070707",
"j. c None",
"k. c gray62",
"l. c #494949",
"z. c gray27",
"x. c #AEAEAE",
"c. c gray74",
"v. c #B6B6B6",
"b. c black",
"n. c white",
"m. c white",
"M. c gray52",
"N. c #777777",
"B. c #8E8E8E",
"V. c #8B8B8B",
"C. c #494949",
"Z. c black",
"A. c black",
"S. c gray37",
"D. c gray75",
"F. c gray19",
"G. c gray19",
"H. c #A9A9A9",
"J. c #343434",
"K. c gray88",
"L. c gray88",
"P. c white",
"I. c white",
"U. c #7B7B7B",
"Y. c gray46",
"T. c gray46",
"R. c #606060",
"E. c #BBBBBB",
"W. c gray21",
"Q. c gray21",
"!. c #A7A7A7",
"~. c gray22",
"^. c #DADADA",
"/. c #DADADA",
"(. c #727272",
"). c gray60",
"_. c #606060",
"`. c #606060",
"'. c DimGray",
"]. c #AAAAAA",
"[. c #4B4B4B",
"{. c #4B4B4B",
"}. c gray69",
"|. c #272727",
" X c #EFEFEF",
".X c #EFEFEF",
"XX c #8B8B8B",
"oX c #8B8B8B",
"OX c #0B0B0B",
"+X c #0B0B0B",
"@X c #8E8E8E",
"#X c #A0A0A0",
"$X c #A0A0A0",
"%X c #979797",
"&X c gray71",
"*X c gray71",
"=X c #555555",
"-X c #D0D0D0",
";X c #1B1B1B",
":X c #1B1B1B",
">X c #A2A2A2",
",X c gray63",
"<X c #414141",
"1X c #D0D0D0",
"2X c #D0D0D0",
"3X c #4B4B4B",
"4X c #060606",
"5X c #060606",
"6X c #C5C5C5",
"7X c #C5C5C5",
"8X c gray53",
"9X c #909090",
"0X c #909090",
/* pixels */
"    . X o O + @ # $ % + & $ # * + = # - ; + : # > + + , # < 1 + , # 2 + 1 < # 3 + + 4 # : + ; 2 # 5 + * < # & + % > 6 7 8 9     ",
"    0 q w e r + w t y r u t w i r p w a s r # w d r r f w g h r f w j r h g w k r r l w # r s j w z r i g w u r y d w + x c v   ",
"  b n m k ; e M k N B e = N k V e C k m Z e 3 k A e e < k S D e < k $ e D S k F e e G k 3 e Z $ k H e V S k = e B A k M e J K   ",
"L P k I r k w # r U Y w z U r T w R r I E w + r W w w Q r ! ~ w Q r ^ w ~ ! r e w w h r + w E ^ r / w T ! r z w Y W r # w k ( ) ",
"_ ` k I r k w # r ' ] [ { } |  .[ ..| X.o.[ O.| +.[ [ @.| #.$.[ @.| %.[ $.#.| &.[ [ *.| O.[ o.%.| =.[  .#.| -.;.:.W r # w k >.,.",
"<.e ; m k ; e 1.2.                                                                                            3.4.5.k M e ; m 6.",
"7.r e a w e 8.9.                                                                                                  0.q.+ r e a w ",
"w.+ M - # e.r.t.                                                                                                    y.u.+ M - # ",
"i.w k I r p..                                                                                                       a.s.w k I r ",
"d.d A f.W g.                                                                                                          h.j.A f.W ",
"k.y B l.Y z.                                                                                                          x.c.B l.Y ",
"v.r e a w b.                                                                                                          n.m.e a w ",
"M.u = N.z 3.                                                                                                          B.V.= N.z ",
"C.w k I r                                                                                                             Z.A.k I r ",
"S.g S D.!                                                                                                             F.G.S D.! ",
"H.i V J.T                                                                                                             K.L.V J.T ",
"v.r e a w                                                                                                             P.I.e a w ",
"U.z H @ /                                                                                                             Y.T.H @ / ",
"C.w k I r                                                                                                             Z.A.k I r ",
"R.j $ E.^                                                                                                             W.Q.$ E.^ ",
"!.s Z ~.E                                                                                                             ^./.Z ~.E ",
"v.r e a w                                                                                                             P.I.e a w ",
"(.# 3 ).+                                                                                                             _.`.3 ).+ ",
"C.w k I r                                                                                                             Z.A.k I r ",
"'.k F ].e                                                                                                             [.{.F ].e ",
"v.r e a w                                                                                                             P.I.e a w ",
"v.r e a w                                                                                                             P.I.e a w ",
"'.k F ].e                                                                                                             [.{.F ].e ",
"C.w k I r                                                                                                             Z.A.k I r ",
"(.# 3 ).+                                                                                                             _.`.3 ).+ ",
"}.h D |.~                                                                                                              X.XD |.~ ",
"v.r e a w                                                                                                             P.I.e a w ",
"R.j $ E.^                                                                                                             W.Q.$ E.^ ",
"C.w k I r                                                                                                             Z.A.k I r ",
"U.z H @ /                                                                                                             Y.T.H @ / ",
"v.r e a w                                                                                                             P.I.e a w ",
"H.i V J.T                                                                                                             K.L.V J.T ",
"S.g S D.!                                                                                                             F.G.S D.! ",
"C.w k I r                                                                                                             Z.A.k I r ",
"M.u = N.z                                                                                                             XXoX= N.z ",
"v.r e a w                                                                                                             P.I.e a w ",
"v.r e a w                                                                                                             P.I.e a w ",
"d.d A f.W                                                                                                             OX+XA f.W ",
"C.w k I r                                                                                                             Z.A.k I r ",
"@X+ M - #                                                                                                             #X$XM - # ",
"v.r e a w                                                                                                             P.I.e a w ",
"%Xe ; m k                                                                                                             &X*X; m k ",
"=Xa m -XI                                                                                                             ;X:Xm -XI ",
"C.w k I r                                                                                                             Z.A.k I r ",
"%Xe ; m k                                                                                                             &X*X; m k ",
"v.r e a w                                                                                                             P.I.e a w ",
">X-X,X<Xg                                                                                                             1X2X,X<Xg ",
"C.w k I r                                                                                                             Z.A.k I r ",
"3Xt N i U                                                                                                             4X5XN i U ",
"k.y B l.Y                                                                                                             6X7XB l.Y ",
"v.r e a w                                                                                                             P.I.e a w ",
"M.u = N.z                                                                                                             XXoX= N.z ",
"3Xt N i U                                                                                                             4X5XN i U ",
"C.w k I r                                                                                                             Z.A.k I r ",
"H.i V J.T                                                                                                             K.L.V J.T ",
"v.r e a w                                                                                                             P.I.e a w ",
"8Xp C 3 R                                                                                                             9X0XC 3 R ",
"C.w k I r                                                                                                             Z.A.k I r ",
"=Xa m -XI                                                                                                             ;X:Xm -XI "
};
