/* XPM */
static char *_2bae241ee214facbca7efd117b5eb8cFIRrdbQAgjeerwDM[] = {
/* columns rows colors chars-per-pixel */
"64 64 140 2 ",
"   c None",
".  c #760970",
"X  c #780873",
"o  c #860980",
"O  c #8E0E87",
"+  c #8F1387",
"@  c #8D158A",
"#  c #901087",
"$  c #900690",
"%  c #9A0E93",
"&  c #960799",
"*  c #9D109B",
"=  c #A01399",
"-  c #A31E9D",
";  c #AB1F9F",
":  c #A20BA3",
">  c #A704AD",
",  c #A408A9",
"<  c #B30DAF",
"1  c #A413A1",
"2  c #AB14A4",
"3  c #AE1CA1",
"4  c #B019A4",
"5  c #B312AE",
"6  c #B81AAB",
"7  c #AB09B0",
"8  c #B10DB3",
"9  c #B80DBA",
"0  c #B512B5",
"q  c #BC15B4",
"w  c #BA1CB3",
"e  c #BC11BB",
"r  c #B61AB9",
"t  c #BF1DBF",
"y  c #AD31A8",
"u  c #BC23B4",
"i  c #BF29B9",
"p  c #B836B3",
"a  c #C31CB6",
"s  c #C114BD",
"d  c #C31BBD",
"f  c #C91EBE",
"g  c #C323B6",
"h  c #C626BD",
"j  c #C824BF",
"k  c #C42CBC",
"l  c #CA2EBE",
"z  c #C13CBA",
"x  c #AB5EA7",
"c  c #AE5DAD",
"v  c #B859B4",
"b  c #C170BA",
"n  c #C278BC",
"m  c #BE1BC1",
"M  c #C414C1",
"N  c #CA16C6",
"B  c #C71BC2",
"V  c #CD1BC3",
"C  c #CF1BCC",
"Z  c #D41CC3",
"A  c #D017CD",
"S  c #D51DCA",
"D  c #DC1CCA",
"F  c #DB1ED4",
"G  c #E21BCE",
"H  c #E71BD0",
"J  c #C220C2",
"K  c #CB23C4",
"L  c #C52BC0",
"P  c #CB2CC3",
"I  c #C723C8",
"U  c #CF2AC8",
"Y  c #D127C6",
"T  c #D126C8",
"R  c #DE26CD",
"E  c #D22BC9",
"W  c #DB2ECC",
"Q  c #C731C3",
"!  c #CD33C5",
"~  c #C938C0",
"^  c #D231C7",
"/  c #D332CA",
"(  c #DC30CE",
")  c #D53DCB",
"_  c #D32BD1",
"`  c #D937D0",
"'  c #DF3CD4",
"]  c #E127D2",
"[  c #EA22D5",
"{  c #E229D2",
"}  c #EA25DC",
"|  c #E32DDC",
" . c #F02AD7",
".. c #E53CD6",
"X. c #E032DA",
"o. c #F03FDA",
"O. c #F03CE2",
"+. c #CD4EC7",
"@. c #D843CF",
"#. c #CC51C8",
"$. c #E14AD4",
"%. c #E848DB",
"&. c #F957DF",
"*. c #CB6CC7",
"=. c #C979CA",
"-. c #D179CE",
";. c #F944E6",
":. c #F848E1",
">. c #BF84BB",
",. c #B69CB5",
"<. c #B7B7B7",
"1. c #BBBAB9",
"2. c #C0C0BF",
"3. c #C881C5",
"4. c #CD8ACF",
"5. c #C495C1",
"6. c #CCAFCA",
"7. c #D5A6D5",
"8. c #C5C4C3",
"9. c #C9C8C7",
"0. c #CDCDCB",
"q. c #D0CFCE",
"w. c #D1D0CF",
"e. c #D5CED4",
"r. c #D9C5D8",
"t. c #D4D4D3",
"y. c #D8D7D7",
"u. c #D8D8D7",
"i. c #DCDBDB",
"p. c #E0DFDF",
"a. c #E0DFDE",
"s. c #E0E0DF",
"d. c #E0DFE0",
"f. c gray88",
"g. c #E1E0E0",
"h. c #E1E1E0",
"j. c #E1E1E1",
"k. c #E2E1E1",
"l. c #E2E1E2",
"z. c #E1E1E0",
/* pixels */
"                                                                                                                                ",
"                                                                                                                                ",
"                                                                                                                                ",
"                                                            m                                                                   ",
"                                                            _                                                                   ",
"                                                                                                                                ",
"                                                                I                                                               ",
"                                                                _ r                                                             ",
"                                                                  J                                                             ",
"                                                                                    %.k                                         ",
"                                    o.                              P               @.                                          ",
"                                                                    f                                                           ",
"                                                                    a Y           !                                             ",
"                                        $.                        ` w Z           i                                             ",
"                                        z                         L q Z W       $.i                                             ",
"                                                                X.u a W W       / )                                             ",
"                                                                | q l ' ~       /                                               ",
"                            R                                   K s P k         ^                                               ",
"                             .W           p                   l 0 M w &         !                                               ",
"                                          T                   u 7 B 5 ,         P                                               ",
"                                          F K                 2 > B d e         h                                               ",
"                                  s S     A }                 1 > V P S       w P                                               ",
"                                  S ]     C } :.              2 < Z d C N     d E                                               ",
"                                    ] G     O.;.&.            2 a Z d M N d ( d V                                               ",
"                                    { [ H     ..R Z   @     O ; l W e e M s E q K                                               ",
"                                      [ [ D Y j / Z g z - X + 3 ) g 8 e e M U q K                                               ",
"                                        f 5 q q 5 a f +.P . # 4 1 * : 0 9 s K d K                                               ",
"                                          ,.v y - = 2 6 w o O % $ w s 8 8 t Q #.3.<.                                            ",
"                                          8.t.e.6.5.>.n b x x c c *.-.=.4.7.r.y.t.                                              ",
"                                          8.u.f.f.p.i.t.t.0.0.0.w.t.y.i.f.f.f.i.w.                                              ",
"                                          8.t.i.f.i.i.u.t.t.q.q.t.t.u.i.f.f.f.i.0.                                              ",
"                                            t.i.p.i.i.u.t.t.q.q.t.t.u.i.f.f.s.u.0.                                              ",
"                                            8.t.u.i.u.t.t.t.w.w.t.t.u.i.i.p.i.w.1.                                              ",
"                                            9.w.w.w.q.0.9.8.8.8.8.9.0.0.t.q.9.8.1.                                              ",
"                                            9.u.i.f.i.u.t.0.0.9.0.w.y.p.f.d.i.t.8.                                              ",
"                                            9.u.d.f.i.u.t.t.0.0.t.t.u.i.f.f.i.t.                                                ",
"                                            8.t.i.p.i.u.t.t.w.q.t.t.u.i.f.f.i.t.                                                ",
"                                              9.u.i.i.u.t.t.w.t.t.t.u.i.p.i.u.9.                                                ",
"                                              8.0.w.q.0.9.8.8.9.0.0.t.t.t.t.w.8.                                                ",
"                                              8.t.u.u.y.t.0.9.0.0.t.u.i.i.i.t.8.                                                ",
"                                              8.t.u.i.u.t.t.w.t.t.y.i.i.i.i.t.                                                  ",
"                                                t.u.i.u.t.t.t.t.t.u.i.i.i.u.0.                                                  ",
"                                                t.u.i.u.t.t.t.t.t.u.i.i.i.u.9.                                                  ",
"                                                0.u.i.u.t.t.t.t.t.u.i.i.i.u.8.                                                  ",
"                                                9.u.i.u.u.t.t.t.t.u.i.i.i.t.8.                                                  ",
"                                                8.u.i.u.u.t.t.t.y.u.i.i.i.t.2.                                                  ",
"                                                8.t.i.u.y.t.t.t.t.u.i.i.i.t.                                                    ",
"                                                8.t.u.u.t.t.t.t.t.u.i.i.u.q.                                                    ",
"                                                  t.u.u.t.t.t.t.t.u.i.i.u.0.                                                    ",
"                                                  0.y.u.t.t.t.t.t.u.i.i.u.9.                                                    ",
"                                                  0.t.y.t.t.t.t.t.u.u.i.t.8.                                                    ",
"                                                  9.t.t.t.t.t.t.t.t.u.u.t.8.                                                    ",
"                                                  8.t.t.t.t.t.t.t.t.u.t.w.                                                      ",
"                                                  8.w.t.t.t.w.w.t.t.t.t.0.                                                      ",
"                                                    0.t.t.w.0.w.t.t.t.t.9.                                                      ",
"                                                    0.t.t.q.0.0.w.t.t.t.9.                                                      ",
"                                                    9.w.w.0.0.0.q.w.t.w.8.                                                      ",
"                                                    8.0.0.0.0.0.0.w.w.0.                                                        ",
"                                                      0.0.0.0.0.0.0.w.                                                          ",
"                                                                                                                                ",
"                                                                                                                                ",
"                                                                                                                                ",
"                                                                                                                                ",
"                                                                                                                                "
};
