/* XPM */
static char *f2ad66a7ee8c49b0a39e2940cd1ae27f35tzCPMgkReT5GOr[] = {
/* columns rows colors chars-per-pixel */
"64 64 247 2 ",
"   c None",
".  c #080E13",
"X  c #0C1115",
"o  c #0B121B",
"O  c #141719",
"+  c #29251C",
"@  c #372E1B",
"#  c #0B162A",
"$  c #0C1A2B",
"%  c #091526",
"&  c #151E26",
"*  c #061C3C",
"=  c #0B1B36",
"-  c #121C34",
";  c #1B2328",
":  c #0C2139",
">  c #1A2432",
",  c #19273A",
"<  c #0D212C",
"1  c #282B29",
"2  c #352829",
"3  c #3A3626",
"4  c #232B34",
"5  c #252D38",
"6  c #2B343C",
"7  c #293137",
"8  c #353938",
"9  c #2D302F",
"0  c #231F18",
"q  c #443C25",
"w  c #403135",
"e  c #3C413E",
"r  c #4C4228",
"t  c #594824",
"y  c #574C36",
"u  c #4F483D",
"i  c #6A552A",
"p  c #735E2B",
"a  c #6B5734",
"s  c #624D22",
"d  c #7A6535",
"f  c #7E672D",
"g  c #6A511F",
"h  c #061D44",
"j  c #091E44",
"k  c #051F4D",
"l  c #0D2243",
"z  c #0A234C",
"x  c #08234C",
"c  c #172A4A",
"v  c #062553",
"b  c #0A2654",
"n  c #0B2952",
"m  c #062B5C",
"M  c #0A2C5B",
"N  c #052857",
"B  c #132C55",
"V  c #142D59",
"C  c #0C315D",
"Z  c #1C3253",
"A  c #13325C",
"S  c #19345A",
"D  c #1D314A",
"F  c #222C45",
"G  c #263349",
"H  c #353B43",
"J  c #293A57",
"K  c #2E2D55",
"L  c #072E62",
"P  c #063166",
"I  c #0C3365",
"U  c #05336A",
"Y  c #0B356A",
"T  c #0B396D",
"R  c #133463",
"E  c #133C6C",
"W  c #1A3764",
"Q  c #0B3C73",
"!  c #063972",
"~  c #153E75",
"^  c #4F2B4B",
"/  c #3C4247",
"(  c #384754",
")  c #29405A",
"_  c #0B437A",
"`  c #14447B",
"'  c #164478",
"]  c #2B486B",
"[  c #244576",
"{  c #374D79",
"}  c #38516F",
"|  c #484A4A",
" . c #444B54",
".. c #485257",
"X. c #555758",
"o. c #5B605B",
"O. c #756946",
"+. c #495866",
"@. c #465975",
"#. c #565B6C",
"$. c #5B6469",
"%. c #556978",
"&. c #536975",
"*. c #64686B",
"=. c #687379",
"-. c #81692E",
";. c #836B36",
":. c #8F773B",
">. c #887445",
",. c #927D45",
"<. c #98813F",
"1. c #998449",
"2. c #998553",
"3. c #AB9456",
"4. c #AC9864",
"5. c #1C4D83",
"6. c #164983",
"7. c #065493",
"8. c #185A93",
"9. c #14508A",
"0. c #274B83",
"q. c #2B578B",
"w. c #365A87",
"e. c #255B99",
"r. c #375B95",
"t. c #0E619F",
"y. c #396588",
"u. c #386697",
"i. c #2B6C9F",
"p. c #0D6BAB",
"a. c #1771AE",
"s. c #2A6CA7",
"d. c #3A6CA5",
"f. c #3B74A9",
"g. c #277BB7",
"h. c #3978B9",
"j. c #2873AF",
"k. c #1C59A0",
"l. c #486587",
"z. c #5C6E85",
"x. c #5C7585",
"c. c #476796",
"v. c #4A729B",
"b. c #597498",
"n. c #506F99",
"m. c #687A86",
"M. c #67718B",
"N. c #4778A9",
"B. c #547BA6",
"V. c #437BB4",
"C. c #507FB6",
"Z. c #455F8E",
"A. c #3B7EC2",
"S. c #3383BE",
"D. c #6A848D",
"F. c #66828B",
"G. c #788688",
"H. c #6E8A93",
"J. c #6B8392",
"K. c #728D96",
"L. c #788996",
"P. c #75929B",
"I. c #78949B",
"U. c #5582A8",
"Y. c #4785B9",
"T. c #5688B7",
"R. c #6884AA",
"E. c #7088A7",
"W. c #7E9AA3",
"Q. c #7C95AF",
"!. c #648AB6",
"~. c #6795BA",
"^. c #7A96B4",
"/. c #6C9AAE",
"(. c #7FA0BF",
"). c #3C8DCB",
"_. c #3887C6",
"`. c #3A92CE",
"'. c #3C93D2",
"]. c #3997D7",
"[. c #3B8ED3",
"{. c #3CA1E2",
"}. c #498CC7",
"|. c #538EC7",
" X c #4891CC",
".X c #5592CB",
"XX c #5B94CA",
"oX c #4799D7",
"OX c #5797D0",
"+X c #418CD1",
"@X c #6898CC",
"#X c #739CC8",
"$X c #6B9BD0",
"%X c #6098D3",
"&X c #709ED2",
"*X c #47A3DB",
"=X c #7AA3CC",
"-X c #78A5D4",
";X c #6CA9D8",
":X c #4CADE6",
">X c #459EE0",
",X c #8B9191",
"<X c #ABA49A",
"1X c #839EA4",
"2X c #869BAA",
"3X c #899CAD",
"4X c #86A1AA",
"5X c #8AA4AD",
"6X c #88A4AB",
"7X c #94A3AC",
"8X c #8CA6B4",
"9X c #95ABB5",
"0X c #98B2BA",
"qX c #A2ABA6",
"wX c #AEB9B6",
"eX c #A19E94",
"rX c #C5BBAF",
"tX c #CCA68C",
"yX c #BAC2BB",
"uX c #C2C4BA",
"iX c #88A6C6",
"pX c #93AAC5",
"aX c #9DB6CB",
"sX c #81A7D4",
"dX c #88ADD5",
"fX c #8DB3D9",
"gX c #87B3D7",
"hX c #93B6DA",
"jX c #9BBCDC",
"kX c #98B7D6",
"lX c #91AFD0",
"zX c #A4BCC2",
"xX c #A9BEC4",
"cX c #A4B8CB",
"vX c #A4BDD8",
"bX c #ACC2C7",
"nX c #B9C8CB",
"mX c #A3C2DD",
"MX c #AAC4DD",
"NX c #ACC8DE",
"BX c #B4C9DD",
"VX c #BDD2D7",
"CX c #AAC7E0",
"ZX c #C6CEC7",
"AX c #C5D9DB",
"SX c #CCD3CC",
"DX c #E8EEE8",
/* pixels */
"                                                                                                                                ",
"                                                                                                                                ",
"                                                                                                                                ",
"                                                                                                                                ",
"                                                                                                                                ",
"                                                                                                                                ",
"                                                                                                                                ",
"                                                                                                                                ",
"                                                                                                                                ",
"                                                                                                                                ",
"                                                                                                                                ",
"                                                                                                                                ",
"                                                                                                                                ",
"                                                                                                                                ",
"                                                                                                                                ",
"                                                                                                                                ",
"                                                              bXbXxXzX0X9X8X5X3X2XQ.^.iXlXaXkXmXjXkXkXjXvXMX                    ",
"                                                          VXAXxXbXbXzX9X0X9X8X8X5X5X5X1XK.b.@Xm.#. ./ =.L.L.L.Q.!.              ",
"                                                      xXAXbX6XP.P.1X0X9X8X5X6X4XW.W.W.1XD.U.b.> > G 4 $.7X9X9XL.E.R.        R.  ",
"                                                    nXAX0XP.P.K.H.K.9X5X5X4X4XW.W.I.P.H.%.U.G o % 4 6 ..1X7X7X9Xm.pX        r.  ",
"                                                0XAXnX4XP.K.H.H.K.4X5X6X6X4XW.I.K.H.D.%.Y.} $ $ $ > ( / G.2X2X7X7Xm.pX      r.  ",
"                                            b.xXAXVXbXxXzXzX0X0X9X8X1XW.W.I.P.H.H.F.x.l.N.5 $ $ $ & 6 H *.*.*.o.X.| z.iXkXu.]   ",
"                                          L.bXAXnXbXzXzXaX0X9X8X1X1XI.P.P.H.H.D.F.x.&.V.+., & $ $ & 6 / X.2 2 2 w X. .c.iXE.pX  ",
"                                  cXcX9X8X9X1XD.G.+./ 6 ..m.I.1XW.I.P.K.H.D.F.nXnX%.l.N.+.f.'.].*Xy.5 / X.^ | *.L.2X2XlXvXpXpX  ",
"                          w.c.3X@.> G } z.^.gX;X;XOXT.U.J.%...+.&.+.+.( ..%.x.F.m.+.S.} ( 9.7.7.p.8.$.=.J.E.=XdXdX=X!.R.c.w.{ M.",
"                  ^.3X8XiXpXaXcXl.l = # % o c i.*XoX'.).dXBXNXvXcX8XL.z.#.+.( ( &.v.Y.+. .D Z S ] n.#X~.~.!.B.c.r.q.0.w.b.R.b.M.",
"            pXaXvXBXNXBXBXBXBXBX!.~ Y L N b b ~ )._.XXdXmXMXNXNXNXNXNXNXMXhX-XXXT.Y.V.[ E B.!.~.T.N.v.u.w.0.0.0.[ 0.q.c.Z.{ } #.",
"        E.aXBXNXBXBXBXMXMXMXMXmXmXjX=XC.d.e.k.h.@XdXhXjXjXmXmXmXmXjXgX;X.X X X.X.X.X|.s.f.T.N.q.6.' 6.~ ` 5.5.` 0.5.' ~ [ J } %.",
"      ,XpXvXvXvXvXjXkXkXkXkXhXhXhXhXhXhXfX-X-XdXjXhXjXjXjXjXfX-XOX X X X X X X|.|.V.d.e.6.` ` ` ` 5.5.` Q ! ! U U U P R G o F @.",
"      0XlXhXdXdXsXsXsXsXsXsXsX-XsX-X-X$X$XdXfXfXfXgXgX-X$XOX+X'.'.).+X X}.}.Y.V.f.f.8.` ` Q Q ` ' Q ! U P P P P P P P J y 2 - +.",
"    7X^.iXsX=X#X&X$X$X$X$X$X$X$X%X.XXX&X-X-X-X-X$XOX X'.].].].'.`.). X}.}..X.X|.V.u.y._ ` U P P P P P P Y Y E E E R W u ,.a > +.",
"    m.> 5 @.B.!.@XXXXXXX.X.X.XoX+X.X.X.X|.|.|.}._.].{.{.].].].'.).). X}.Y.s.5._ ! T { Y P P P P P I Y T Q E W W W J J t 1.d 7   ",
"  @.] ; . . & , ) u.Y.|.}.}.>X]._.v.z.,XeXeXqXwXwX/.:X:X{.].'.'.).).h.8.C * = * L P I I P I I I I Y I R A A S S J J 8 t d ;.4   ",
"@.b.d.J > O H H X X $ ] f.Y.'.y.G.eX<XtXrXuXZXZX<X/.:X*X*X].'.`._.j.' , & O . . % M W A I R R A V A A A Z J J G c > 8 >.3.>.;   ",
"@.z.R.w.Z F 5 & o X X 4 w.Y.u.G.7XwXrX<XAXZXSXDXyXT.].`.).S.g.a.t.E 5 e | H 7 o . : S S S V V V V V Z Z G G Z [ [ G 9 1.:.O.    ",
"c J W n.n.[ b G 5 4 & , V.:XU.,X=.,XqXwXZXnX,XSX=.g.g.a.p.p.t.8.Q 7 / 8 9 3 1 ; X % S M V V V B Z D Z M [ c.n.{ D O 1 d 1.u     ",
": o > ] l.n.c.c.[ b B { N.].u.$...G.qXZXwXqXo.*.] t.t.7.9.9._ ! 5 8 8 r q p t r O % B B n n n n N [ v.B.@.        X O y y       ",
"F # 9 6 5 J ] [ 0.w.0.r.d.s.h.0.w.q.q.y.y.w.y.y.s.g.S._._.j._ n 9 8 3 i + d i p + > n x v M ' u.B.b.@.                          ",
"H D / | 8 > > , Z W R I ' q.e.d.V.V.h.A._.[.oX*X]._.g.e.5.Y N , 8 1 q r t :.1.g 3 ; B ' q.N.U.n.                                ",
"  J H | | 9 1 & 1 4 > h k v N N m Y T Q _ _ ' T P N N N N M I 5 9 q r @ -.<.d ;.r < u.Y.N.{                                     ",
"  8 G J ....| 9 | | | j z C R Y M N N M M C C C Y E Y Y I L M 1 ; @ @ -.t s :.-.q < S                                           ",
"      , D J  .X.X.o.X.- z b v B S W R I I I M n m L m L m m n 9 O + 3 ;.a ,.i :.q <                                             ",
"          c c G  .X.X., j z z K ^ ^ V N N N x l m m m m m m l 9 O ;.d f >.2.i 3.1 <                                             ",
"              - , F G - - l j l l z z x v h * x m Y 6.8.8.I : 1 X @ q 1.-.t a 2.& ;                                             ",
"                    # $ - - l j j j j j j * * I _.{.j.E x b $ ; X r 1.t s p 4.y   1                                             ",
"                          - # % # # % % % = h n A l * x N v o O X t i p d ,.O.                                                  ",
"                            l l l n l = = * h h h h x v v = X X X O p 1.1.O.+                                                   ",
"                                      z n N v x             X . O X O + + O                                                     ",
"                                                                X X X                                                           ",
"                                                                                                                                ",
"                                                                                                                                ",
"                                                                                                                                ",
"                                                                                                                                ",
"                                                                                                                                ",
"                                                                                                                                ",
"                                                                                                                                ",
"                                                                                                                                ",
"                                                                                                                                ",
"                                                                                                                                ",
"                                                                                                                                ",
"                                                                                                                                ",
"                                                                                                                                ",
"                                                                                                                                ",
"                                                                                                                                "
};
