/* XPM */
static char *_5166b4029154069ca8e1a9946ebcaae6erClBI6LspjjUVc[] = {
/* columns rows colors chars-per-pixel */
"64 64 132 2 ",
"   c #9402B9",
".  c #950BB9",
"X  c #9513BA",
"o  c #961CBA",
"O  c #9724BB",
"+  c #9827BB",
"@  c #9728BB",
"#  c #982CBB",
"$  c #9934BC",
"%  c #9B3BBD",
"&  c #9D43BE",
"*  c #9F4ABF",
"=  c #A04DBF",
"-  c #9F4DC0",
";  c #A04EC0",
":  c #A153C1",
">  c #A45BC2",
",  c #A662C3",
"<  c #A866C4",
"1  c #AA6CC6",
"2  c #AC71C7",
"3  c #AE75C8",
"4  c #AF78C9",
"5  c #B17CCA",
"6  c #B484CC",
"7  c #B789CE",
"8  c #B98DCF",
"9  c #BA8FD0",
"0  c #BC93D1",
"q  c #BF99D3",
"w  c #C19DD4",
"e  c #C4A3D6",
"r  c #C7A7D8",
"t  c #C7A8D8",
"y  c #C9ACDA",
"u  c #CCB1DB",
"i  c #CCB0DB",
"p  c #CCB1DC",
"a  c #CEB5DD",
"s  c #CFB5DD",
"d  c #CFB6DD",
"f  c #CFB7DE",
"g  c #CDB3DC",
"h  c #D0B7DE",
"j  c #D0B7DE",
"k  c #D1B9DF",
"l  c #D3BCE0",
"z  c #D4BEE0",
"x  c #D4BDE0",
"c  c #D5C0E2",
"v  c #D6C1E2",
"b  c #D6C3E3",
"n  c #D7C3E3",
"m  c #D7C4E3",
"M  c #D6C1E2",
"N  c #D8C4E3",
"B  c #D9C6E4",
"V  c #D9C7E4",
"C  c #D9C6E5",
"Z  c #DAC7E5",
"A  c #D9C6E4",
"S  c #DAC8E5",
"D  c #DBC8E5",
"F  c #DBC9E5",
"G  c #DBCAE6",
"H  c #DCCBE6",
"J  c #DDCDE7",
"K  c #DECEE7",
"L  c #DCCBE6",
"P  c #DECEE8",
"I  c #DECFE8",
"U  c #DFD0E8",
"Y  c #DFD0E9",
"T  c #DFD0E8",
"R  c #E1D2E9",
"E  c #E3D6EB",
"W  c #E4D7EB",
"Q  c #E2D4EA",
"!  c #E4D8EC",
"~  c #E6D9EC",
"^  c #E6DAED",
"/  c #E6DBED",
"(  c #E6DAED",
")  c #E8DDEE",
"_  c #E8DEEF",
"`  c #E8DEEF",
"'  c #E9DFF0",
"]  c #EAE0EF",
"[  c #EBE2F1",
"{  c #ECE3F1",
"}  c #ECE4F1",
"|  c #ECE4F2",
" . c #ECE5F2",
".. c #EEE6F2",
"X. c #ECE4F2",
"o. c #EFE8F3",
"O. c #EFE8F4",
"+. c #EFE8F4",
"@. c #F0EAF4",
"#. c #F1EBF5",
"$. c #F2ECF6",
"%. c #F3ECF6",
"&. c #F3EEF7",
"*. c #F2ECF6",
"=. c #F4EFF8",
"-. c #F5F0F7",
";. c #F4F0F8",
":. c #F5F0F8",
">. c #F5F1F8",
",. c #F6F2F8",
"<. c #F6F2F9",
"1. c #F7F3F9",
"2. c #F7F4F9",
"3. c #F6F2F9",
"4. c #F9F6FA",
"5. c #F9F7FB",
"6. c #FAF7FB",
"7. c #F9F6FA",
"8. c #FAF8FB",
"9. c #FAF9FC",
"0. c #FBF9FC",
"q. c #FCFAFC",
"w. c #FCFBFD",
"e. c #FDFBFD",
"r. c #FDFCFD",
"t. c #FDFCFE",
"y. c #FDFDFE",
"u. c #FEFDFE",
"i. c #FEFEFE",
"p. c #FEFEFF",
"a. c white",
"s. c #FEFEFE",
/* pixels */
"5 2 1 1 2 2 < = $ % % # O @ # $ % % # o X                                         X O $ * > 2 2 , , < < < < > * O X             ",
". X o @ # # $ $ $ O . # $ & < 5 z 8.u.u.u.u.u.! w O   . l B R J J J Y P S S B 0 X # w R Y S 0 2 5 1 : * % % $ $ o .             ",
"        . X o $ ; > ; $ O 0 v  .,.u.u.u.u.u.l 0     e l u.u.R J Y W _ [ [ o.@.,.{ e # t w * < 5 7 0 8 8 0 w e 0 3 , > > : > > > ",
"        . o @ * 2 0 d i 5 @ @ v _ ,.,.,.d p     # h @.u.u.u.u.u.u.u.u.u.u.u.u.u.u.u.l ; @ & 5 0 > < - > 6 0 e e e t t t e e e e ",
"& * * ; > > > : : * ; & & $ % X $ w t 7 o     7 e  .O.w.u.u.u.u.u.u.w.u.u.w.w.9.S 5 > w J y S $.! v y w w w 0 0 2 * # X .       ",
"o o @ $ $ % % & * % & # $ * 0 1 O   :     7 i ,.6.u.u.u.u.u.H J ! v B v B Q d 5 : # e _ m w : > : & $ $ & 1 3 , * * > < 1 7 7 7 ",
"* : : : : > < , ; : 5 * O $ 5 w <       q Y u.u.u.u.u.u.u.u.H J ! v H N d 8 : o e ! $.,.h 3 7 5 2 3 2 6 0 e t q 0 0 w e t i y t ",
"* ; : > < 1 5 5 1 < 1 % . X * %   . 2 $ X X J  .9.u.u.u.u.u.u.u.u.u.u.H < % $ i ,.u.u.u.@.y e 8 e w y v H P  .@.@.$.,.,.2.6.6.6.",
"O O O @ $ % & * * % * $ .       < q Q w < O   * N -.,.6.u.u.u.u.w.B 5 :   w Q _ _ ! W ! ! R z t r 0 8 6 3 1 2 5 5 6 7 0 0 w e w ",
"@ $ % $ $ $ & * : ; : &     . < p H !  .O.0 2 @   v  .u.u.u._ e : O   # > 2 3 7 w 0 7 6 : % & * > > > , < 1 1 , , < 8 q w y y t ",
"O O O @ # & > ; $ O o     . X < p R 6.u.u.u.w.e % . . R @.6.t * X . 7 z J ! Q _  . .{ ..z 0 0 8 0 0 w y d l P J S P ! ! _  . . .",
". o O O X X X . .     X o o   * 0 J ,.6.6.2.,.=.r 5 @   % , :   e  .2.u.u.u.u.u.u.u.u.u.,.R y 7 0 - 2 7 e 2 : > : * & & * 5 z z ",
"# $ % & * * # O   O O % ; # . $ 7 l R R R S k i B  .6 %     # e ,.w.-.@.[ ! J B l l z z y 8 7 ; < > ; * * * : : > = < 3 7 8 e w ",
"O O O @ # $ X # O % & * > * O # 7 ! ,.u.u.w.8.9.u.S > o   O     1 8 7 w e h t w e e e e > % * % * $ $ > > < 5 2 8 0 e h v B v z ",
". . X X . . X o o o o X O $ o O 1 B 6.u.u.u.u.J 5 :   w _ t 4 O   > q v S  .P v N N v z y 0 6 0 8 < 3 0 7 1 1 1 3 2 3 5 8 k ! B ",
"  . .     . . . X o o @ & * o @ 4 P w.u.u.! 0 :   % y $.w.u.u.e 5 @   Y O.u.u.u.u.u.u.u.u. .y 6 O * % O o o O $ $ O O @ $ % & * ",
"* * & - > < , : * % * > > : o @ 3 ] @.@.k > O . 0 H R _ $.w.u.u.u.e > o & P 6.6.6.2.,.,.Q 6 2 2 5 5 3 3 5 8 0 5 6 7 0 e t y y w ",
". . . . . X o o X . . . X o . . * k e : %   > 0 e z R ) ,.u.$.w 0 w < * X   6 e k l k l 7 , * : * * : 1 1 5 w e t y y y k Y [ Q ",
"    . . . . . . X o o O % , % O , 7 > X 3 S 2.u.u.u.u.u.u.u.u.[ P J B J 7 , O # e B S H S h 0 4 1 : : : * % & % & & & & & : > : ",
"# # # $ $ % % $ $ $ % & * : % : : * % i $.9.u.u.u.u.u.u.u.u.u.u.u.u.u.u.u.u.t 5 $ B @.u.2.k < & ; * : : * : : > 3 6 5 7 7 8 0 7 ",
"+ @ @ $ * & # @ $ O # % * < < $ o 7 S [ $.=.$.2.9.u.u.u.u.u.u.u.u.6.6.9.,. .[ _ 8 , * w d 1 1 6 , 2 , 1 5 6 6 7 w k l B B J P N ",
"    . .               . X X X $ , < 0 e t t r B  .,.u.u.u.u._ k e w e e y d l k v W 0 1 t 0 2 3 & : > 6 < * % % $ $ # $ * 7 q 2 ",
"o O o O O O @ O O # % % @ ; 2 0 B W 6.u.u.9.2.6.w.u.u.u.u.u. ._ J Q R R Q Q ! ! Q $.6.@.e q e 5 < ; ; * % $ $ % : > > : > , < 1 ",
"$ $ % * > : % $ # # # $ : 1 6 e Y Q @.6.u.u.u.u.u.u.u.u.u.u.u.u.u.u.u.u.u.u.u.u.u.u.u.u.w.[ > : 1 $ : % * < 5 7 8 0 e t i d p d ",
"  . . . .   . o o . X O o % < 4 t y W u.u.u.u.u.u.u.u.u.u.u.u.u.u.u.u.u.u.u.u.9.9.9.9.6.,.h e < 4 7 e d k e e e e w 0 e y P [ Q ",
"                . . o % * : 3 3 e q Y 6.6.,.=.-.=.=.2.u.u.u.9. .J k z 0 y z ! y 0 q 0 7 5 & O % : X o X X     . X o o X o # $ $ ",
"* * = : > : : * & : > > < 2 7 t ! [ @.6.$.W H Q _ _ $.u.u.u.u.9.2.=.,.@.$.=.6.=.@.@.@.q < : t 4 < 2 < 2 < < 2 5 7 5 5 8 q e e e ",
"@ # $ $ $ @ @ # @ $ & * < 7 w y B N W -.8.9.8.8.9.u.w.w.u.u.u.u.u.u.u.u.u.u.u.u.u.t 5 $ B  .i 7 2 7 4 7 0 w w k S H S R Y !  .O.",
"                      X . . + $ < 2 p 6.u.u.u.u.u.8.Q l S w.u.u.u.u.u.u.u.u.u.p 6 $ % R 9. .v 0 w : < < 4 > * & & % % $ % * 1 2 ",
"$ # O O @ $ % # $ & * > & $ $ % w R _ 6.u.u.u.u.u.u.u.u.u.u.u.w. .B l z z 8 > @   7 0 e 7 7 < $ O o O @ # # $ : 1 1 < 1 2 5 2 6 ",
"X o $ & % O O o X $ % ; 1 4 < O ; 2 v $.u.u.u.u.u.u.u.u.u.u.u.u.w.,.,.,.w : o % B @.$.$.$.$.$.0 6 7 3 5 2 2 7 w d z d d l B v Y ",
"o @ O o o o o o o o @ $ % * : % %   % > w i t t e e h  .Q 6.u.u.u.u.e 5 @   R @.u.u.u.u.u.u.{ e 4 6 % , < w 1 * ; : % % $ % , r ",
"  .           . . X $ * * > 6 5 y 6 X   > 8 Q $.@.$.=.u.u.u.u.u.p 6 #   2 W u.u.u.u.u.u.,. .Y 5 < $ $ O o o o o O O o o o O O O ",
"* - : : > : % % * < 1 1 1 1 0 w k ! 8 5     < p =.u.u.u.u.u.@.6 $   . e k B N B B B O.,.{ _ P * - > $ * $ & < < , % o .         ",
". . .         . X @ O $ = @ * 4 7 p J _ e o   # 3 [ u.u.u.e 2 O   v _ ,.2.,.,.2.,.,.9.u.w.u.6.B y 7 e 7 6 7 w 0 7 8 w q q q w t ",
"X X .   . . . X o @ * : , 3 5 5 8 t J _ Q 8 1     > 4 0 3 @   * R w.u.u.u.u.u.u.u.u.u.u.u.6.2.k 6 : * & $ @ $ # @ # @ O @ # $ $ ",
"% $ X o O X X X O & > < < 1 5 6 r v S Q W ) [ 0 $     X   . Y @.u.u.u.u.u.u.u.u.u.u.u.u.u.Q Q , < , > < < , 1 < 8 7 3 6 6 0 0 8 ",
"@ $ * * $ O O o # * * 2 7 7 r p d J Q  .w.u.u.u.5 &       > R w.u.u.u.u.u.u.u.u.u.u.u.u.u.u.w.0 7 3 5 5 6 0 i t v J S J J P P R ",
". .               X o @ % % * 3 7 i ) ,.u.u.v 7 #   $ 1     : 7 [ w.9.@.$.$.@.@.o.@.$.=.@.O.@.! d 6 5 , , > 1 > ; * * % % & * : ",
"O O o O O # O O O & > : : : ; > 4 w l m H 5 $ . . 5 0 J w o     , 7 S e e e 0 8 8 0 i k t w 6 1 & * & ; : & * = * > : * < 2 3 5 ",
"% * % $ O O o o * : , 7 0 q t k k P Y q 3 @   S ! $.w.u.w.y 7       < ! u.u.u.u.u.u.w.w.w.u.w.7 6 8 1 5 2 5 w e k z i k z v l J ",
"O o X X . .     X O O # * % * : > 6 < O   8 ! 9.u.u.u.-.Q S [ e 5     > 7 _ 9.6.6.2.,.,.,.,.=.v e 2 8 % < 1 e 1 * : : & % % & < ",
"              X o $ * * > , , 3 > > O * P ,.u.u.u.u.u.w.6.2.9.u.,.q O     : 7 v S v l h k z l 0 3 & @ # O o X o @ @ $ @ $ * : : ",
": : > > : : % * : < 5 5 3 5 5 < O O d ! 2.u.9.9.2.=.@.O.[ ! $.6.u.N 2 >     X > l _ @. . .,.,.w < < < , , > < 3 7 6 8 q e t t p ",
"o O o .       . O $ O O @ X .   o # > q y 2 < 1 $ : < 2 e k J w.u.u.u.u.e 7     , 0 { u.u.u.u.k e 7 w 6 0 e v t y d d p d p d v ",
"X .           . X o O % $ X % 1 6 v ! [ O. . . .[ ' [ [ $.9.9.u.u.u.u.u.u.u.e :     < ) w.u.w.{ k 3 < : > & & % % $ $ # # $ $ $ ",
"# O @ @ @ $ @ * * > $ o * > , 7 y S { -.9.u.u.u.w.w.w.w.u.u.u.u.u.=.$.,.o. . .l 7 O   > 7 Q O.0 * % % & & % % * , > < 1 2 7 8 0 ",
"& * * $ # O o % > : 3 6 * o 7 e k B ! $.u.u.u.u.u.u.u.u.u.u.u.u.u.k e l w w 0 w k 8 5 X   , S k 7 6 5 3 5 7 q w y v v v B S S Y ",
"o X . .       . X o O # # X .   * , < 1 2 1 2 5 2 7 S Q @.6.,.6.u.u.u.u.u.u.u.u.u.u.u.t 7 X > 7 y 0 w < 6 5 e 6 < < < , > , , 2 ",
"O o O O o O O O $ $ * > 2 5 , * . o S S [ _ ! ! Y Q $.6.w.u.6.u.u.u.u.u.u.u.u.9.9.8.6.y ! w 6 o & > 5 2 2 < , , , : < 5 4 6 5 5 ",
": > : % % # O % : , 6 0 0 q 8 i > ;   % _ O.9.9.9.w.u.u.u.u.u.u.u.6.,.@. .$.O._ ! 7 : k z k k : O # $ % & % > < 2 5 8 e d l l l ",
"o o X . . . X % > > * > : % , 5 q p < X   5 o.u.u.u.u.u.u.u.u.u.u.! B d z v B e : * W ,.2.6.9.{ d < 1 2 4 0 y y 8 7 7 7 5 5 5 8 ",
"@ o o o X X X o $ $ $ * * , 2 7 0 e k , :     p k B d t l [ 8.u.u.u.u.u.u.u.5 o 7 =.u.u.u.u.u. .R w w 6 0 7 7 0 0 5 7 8 7 0 8 7 ",
"< < , : * $ $ * ; > < 3 3 2 2 q y l W  .@.3 @   . e h v R 6.u.u.u.u.u.u.8 O X { u.u.u.u.u.u.w.J k y i e e w q w w 0 0 0 0 w w e ",
"> > ; * % # $ > 5 7 w r p t d l v J ! $.u.u.0 5     &  .6.u.u.u.u.w.! ,   O ! =.6.$. . . .[ ] y 3 < < < < 1 8 0 7 0 0 0 0 w e d ",
"$ O X o . . o O % & * , < , 7 y v ) O.6.u.u.u.u.5 <     p o.u.u.u.3 .   > 0 e y ! v w q w 0 8 6 5 < 2 1 : & * % $ % % * * ; > > ",
", , 1 3 < : > < 3 3 7 0 0 7 0 h H ! $.6.u.u.u.u.w._ 3 o     Y 8 %     o.u.u.u.u.u.u.u.u.u.u.u.Q Q q 0 2 < , > > : $ O X         ",
"7 3 : - $ o # % & > 5 0 3 < 1 2 1 1 4 0 B @.Q t y w 7 : -         $ @.u.u.u.u.u.u.u.u.u.u.u.u.,.) k q 6 4 3 3 2 > % o .         ",
"> * % * % $ & < 5 1 < 7 1 < 7 0 y v J  .,.9.6.$.=.$.@.$.0 X       N  .2.,.,.,.=.$.-.,.=.$.$.$.Q t 2 : % @ $ * * O X             ",
"$ # % * % $ : > 1 3 8 r e e k Q O.6.9.u.u.u.u.u.u.u.u.5     . 1 o   . l y z v i t p k y e e e w 7 2 > : ; * ; * & % O o .       ",
"e e 0 9 6 5 8 0 w t d d w 8 w k z J @.6.u.u.u.u.u.0 #     0 -.u.7 5     > o.u.u.u.u.u.u.u.u.u.6.@.[ _ _ ) _ ) Q S l y t r e e e ",
"      . X o % > < > : , : > < < 5 7 0 e e e e e :       P ,.u.u.u.u.5 3      .@.u.u.u.u.u.u.u._ i 7 3 < , < > & o .             ",
"# @ $ $ # @ $ % % & : 2 6 8 k N R H l k p i 1 O     * e d k l k k d d t : @   O e p l N ) ,.9.) r < * % $ $ @ O o X . . . . X . ",
"0 e k v r e l J Y Q =.[ t 7 3 1 < , > > > O       O X .                           X # * 5 e y r 0 6 2 < < < , * $ O X           "
};
